<svg xmlns="http://www.w3.org/2000/svg" xmlns:xlink="http://www.w3.org/1999/xlink" version="1.1" x="0px" y="0px" viewBox="0 0 62 55" enable-background="new 0 0 52 55" xml:space="preserve"><g><g><g><path d="M51.7,16.1c0-2.5,2-4.5,4.5-4.5s4.5,2,4.5,4.5s-2,4.5-4.5,4.5S51.7,18.6,51.7,16.1z"/></g><g><path d="M35.2,17.8c-0.1-0.5,0.2-1.1,0.7-1.2c0.5-0.2,1.1,0.1,1.2,0.7l2,6.9h7.6c0.5,0,1,0.4,1,1c0,0.6-0.5,1-1,1h-8.4     c-0.5,0-0.8-0.3-1-0.7L35.2,17.8z"/></g><g><path d="M57.3,40.4h-5.5c-0.4,0-0.8,0.3-0.8,0.8v6.2c0,1.8-1.4,3.2-3.2,3.2c-1.8,0-3.2-1.6-3.2-3.3V37.2c0-1.8,1.4-3.2,3.2-3.2     h3.2c0.4,0,0.8-0.3,0.8-0.8v-6.7c0-2.3,1.8-4.1,4.1-4.1h0.9c2.3,0,4.1,1.8,4.1,4.1v10.2C61,38.7,59.3,40.4,57.3,40.4z"/></g><g><path d="M18.3,25.2c0-0.6,0.5-1,1-1h7.6l2-6.9c0.1-0.5,0.7-0.8,1.2-0.7c0.5,0.1,0.8,0.7,0.7,1.2l-2.2,7.6c-0.1,0.4-0.5,0.7-1,0.7     h-8.4C18.7,26.2,18.3,25.7,18.3,25.2z"/></g><g><path d="M45.8,30.7h-3.9v17.1c0,0.5-0.4,1-1,1c-0.6,0-1-0.5-1-1V30.7h-14v17.1c0,0.5-0.4,1-1,1c-0.5,0-1-0.5-1-1V30.7h-3.6     c-0.5,0-1-0.4-1-1c0-0.6,0.5-1,1-1h25.5c0.5,0,1,0.4,1,1C46.8,30.3,46.3,30.7,45.8,30.7z"/></g><g><path d="M65,33v9.4c0,1.1-0.9,2-2,2h-7.5v9c0,0.5-0.5,1-1,1c-0.6,0-1-0.5-1-1v-9c0-1.1,0.9-2,2-2H63V33c0-0.5,0.5-1,1-1     C64.6,32,65,32.5,65,33z"/></g><g><path d="M12.5,44.4v9c0,0.5-0.4,1-1,1c-0.5,0-1-0.5-1-1v-9H3c-1.1,0-2-0.9-2-2V33c0-0.5,0.5-1,1-1s1,0.5,1,1v9.4h7.5     C11.6,42.4,12.5,43.3,12.5,44.4z"/></g><g><path d="M5.3,16.1c0-2.5,2-4.5,4.5-4.5s4.5,2,4.5,4.5s-2,4.5-4.5,4.5S5.3,18.6,5.3,16.1z"/></g><g><path d="M21.3,37.2v10.1c0,1.7-1.3,3.2-2.9,3.3c-2.1,0.2-3.5-1.4-3.5-3.2v-6.2c0-0.4-0.3-0.8-0.8-0.8H8.7c-2,0-3.6-1.6-3.6-3.7     V26.5c0-2.3,1.8-4.1,4.1-4.1H10c2.3,0,4.1,1.8,4.1,4.1v6.7c0,0.4,0.3,0.8,0.8,0.8h3.2C19.9,34,21.3,35.4,21.3,37.2z"/></g></g></g>
</svg>