<svg xmlns="http://www.w3.org/2000/svg" viewBox="0 0 32 32"><title>Artboard-23</title><g id="Laptop"><path d="M30,25H22.6543l-.6133,1.4a1.0014,1.0014,0,0,1-.9172.6H11a1,1,0,0,1-.8946-.5529L9.3818,25H2a1,1,0,0,0-1,1v1a3,3,0,0,0,3,3H28a3,3,0,0,0,3-3V26A1,1,0,0,0,30,25Z" style="fill:#262628"/><path d="M10.8945,23.5527,11.6182,25h8.8525l.6133-1.4A1,1,0,0,1,22,23h7V9a1,1,0,0,0-1-1H24.941A9.0222,9.0222,0,0,1,25,9c0,4.1406-5.18,10.2344-6.7676,12.0039a2.9991,2.9991,0,0,1-4.4643,0C12.18,19.2344,7,13.1406,7,9a9.0222,9.0222,0,0,1,.059-1H4A1,1,0,0,0,3,9V23h7A1,1,0,0,1,10.8945,23.5527Z" style="fill:#262628"/><path d="M16,20a1.0007,1.0007,0,0,0,.74-.33C17.38,18.95,23,12.59,23,9A7,7,0,0,0,9,9c0,3.59,5.62,9.95,6.26,10.67A1.0007,1.0007,0,0,0,16,20ZM13,9a3,3,0,1,1,3,3A3.0088,3.0088,0,0,1,13,9Z" style="fill:#262628"/></g></svg>